<?xml version="1.0" encoding="iso-8859-1"?>
<!-- Generator: Adobe Illustrator 19.0.0, SVG Export Plug-In . SVG Version: 6.00 Build 0)  -->
<svg version="1.1" id="Capa_1" xmlns="http://www.w3.org/2000/svg" xmlns:xlink="http://www.w3.org/1999/xlink" x="0px" y="0px"
	 viewBox="0 0 461.6 461.6" style="enable-background:new 0 0 461.6 461.6;" xml:space="preserve">
<g>
	<path d="M237.631,233.8v-94c0-4.687-3.813-8.5-8.5-8.5h-142c-4.687,0-8.5,3.813-8.5,8.5v94c0,4.687,3.813,8.5,8.5,8.5h142
		C233.818,242.3,237.631,238.487,237.631,233.8z M222.631,227.3h-129v-81h129V227.3z"/>
	<path d="M158.131,210.3c12.958,0,23.5-10.542,23.5-23.5s-10.542-23.5-23.5-23.5s-23.5,10.542-23.5,23.5
		S145.173,210.3,158.131,210.3z M158.131,178.3c4.687,0,8.5,3.813,8.5,8.5s-3.813,8.5-8.5,8.5s-8.5-3.813-8.5-8.5
		S153.445,178.3,158.131,178.3z"/>
	<path d="M454.1,275.3h-24c-8.151,0-14.384,7.349-18.524,21.841c-1.527,5.342-2.722,11.496-3.561,18.159H189.6v-8.5
		c0-4.142-3.357-7.5-7.5-7.5h-0.5v-17h80.531c12.958,0,23.5-10.542,23.5-23.5v-40.5h8.933c8.223,0,15.02-6.431,15.476-14.64
		l6.173-111.113c0.485-8.732-2.557-17.041-8.567-23.394c-6.011-6.354-14.138-9.853-22.884-9.853H31.501
		c-8.745,0-16.872,3.499-22.882,9.852C2.609,75.506-0.435,83.814,0.05,92.547l6.173,111.112c0.456,8.21,7.254,14.641,15.477,14.641
		h8.932v40.5c0,12.958,10.542,23.5,23.5,23.5H134.6v17h-0.5c-4.143,0-7.5,3.358-7.5,7.5v48c0,17.369,14.131,31.5,31.5,31.5
		c14.785,0,27.216-10.241,30.591-24h219.324c0.839,6.662,2.034,12.817,3.561,18.158c4.141,14.493,10.373,21.842,18.524,21.842h24
		c4.143,0,7.5-3.358,7.5-7.5v-112C461.6,278.658,458.243,275.3,454.1,275.3z M21.7,203.3c-0.266,0-0.485-0.208-0.5-0.472
		L15.027,91.716c-0.254-4.575,1.341-8.927,4.489-12.255c3.147-3.328,7.404-5.161,11.985-5.161h253.26
		c4.582,0,8.839,1.833,11.987,5.161c3.147,3.328,4.741,7.68,4.487,12.254l-6.173,111.113c-0.015,0.264-0.234,0.472-0.499,0.472
		h-8.933v-88.5c0-12.958-10.542-23.5-23.5-23.5h-208c-12.958,0-23.5,10.542-23.5,23.5v88.5H21.7z M45.631,258.8v-144
		c0-4.687,3.813-8.5,8.5-8.5h208c4.687,0,8.5,3.813,8.5,8.5v144c0,4.687-3.813,8.5-8.5,8.5h-208
		C49.445,267.3,45.631,263.487,45.631,258.8z M149.6,282.3h17v17h-17V282.3z M158.1,371.3c-9.098,0-16.5-7.402-16.5-16.5v-40.5h33
		v8.5v32C174.6,363.898,167.198,371.3,158.1,371.3z M189.6,347.3v-17h217.177c-0.117,2.794-0.177,5.633-0.177,8.5
		c0,2.868,0.061,5.706,0.177,8.5H189.6z M446.6,387.3h-15.689c-3.343-3.065-9.311-19.947-9.311-48.5s5.968-45.435,9.311-48.5H446.6
		V387.3z"/>
</g>
<g>
</g>
<g>
</g>
<g>
</g>
<g>
</g>
<g>
</g>
<g>
</g>
<g>
</g>
<g>
</g>
<g>
</g>
<g>
</g>
<g>
</g>
<g>
</g>
<g>
</g>
<g>
</g>
<g>
</g>
</svg>
