<?xml version="1.0" encoding="iso-8859-1"?>
<!-- Generator: Adobe Illustrator 19.0.0, SVG Export Plug-In . SVG Version: 6.00 Build 0)  -->
<svg version="1.1" id="Layer_1" xmlns="http://www.w3.org/2000/svg" xmlns:xlink="http://www.w3.org/1999/xlink" x="0px" y="0px"
	 viewBox="0 0 512 512" style="enable-background:new 0 0 512 512;" xml:space="preserve">
<g>
	<g>
		<path d="M511.85,196.256l-16.946-91.991c-0.793-4.307-4.549-7.433-8.928-7.433H26.024c-4.379,0-8.135,3.126-8.928,7.433
			L0.15,196.256c-0.488,2.651,0.228,5.381,1.951,7.454s4.282,3.269,6.977,3.269h29.858C43.714,322.585,139.241,415.168,256,415.168
			s212.286-92.582,217.064-208.189h29.858c2.696,0,5.252-1.198,6.977-3.269S512.338,198.908,511.85,196.256z M152.511,367.944
			c-54.872-33.518-92.333-92.839-95.406-160.965h95.406V367.944z M341.333,377.774C315.455,390.1,286.521,397.012,256,397.012
			s-59.455-6.911-85.333-19.237V206.979h170.667V377.774z M359.489,367.944V206.979h95.406
			C451.822,275.105,414.362,334.426,359.489,367.944z M19.981,188.823l13.601-73.835h444.835l13.601,73.835H19.981z"/>
	</g>
</g>
<g>
	<g>
		<path d="M256,222.714c-37.042,0-67.177,30.135-67.177,67.177s30.135,67.177,67.177,67.177s67.177-30.135,67.177-67.177
			S293.042,222.714,256,222.714z M256,338.913c-27.031,0-49.021-21.991-49.021-49.021S228.969,240.87,256,240.87
			s49.021,21.991,49.021,49.021S283.031,338.913,256,338.913z"/>
	</g>
</g>
<g>
	<g>
		<path d="M256,258.985c-17.042,0-30.906,13.865-30.906,30.906c0,17.041,13.864,30.906,30.906,30.906
			c17.041,0,30.905-13.865,30.905-30.906C286.905,272.85,273.041,258.985,256,258.985z M256,302.642
			c-7.031,0-12.75-5.72-12.75-12.75c0-7.03,5.72-12.75,12.75-12.75c7.03,0,12.749,5.72,12.749,12.75
			C268.749,296.921,263.03,302.642,256,302.642z"/>
	</g>
</g>
<g>
</g>
<g>
</g>
<g>
</g>
<g>
</g>
<g>
</g>
<g>
</g>
<g>
</g>
<g>
</g>
<g>
</g>
<g>
</g>
<g>
</g>
<g>
</g>
<g>
</g>
<g>
</g>
<g>
</g>
</svg>
