<?xml version="1.0" encoding="iso-8859-1"?>
<!-- Generator: Adobe Illustrator 19.0.0, SVG Export Plug-In . SVG Version: 6.00 Build 0)  -->
<svg version="1.1" id="Capa_1" xmlns="http://www.w3.org/2000/svg" xmlns:xlink="http://www.w3.org/1999/xlink" x="0px" y="0px"
	 viewBox="0 0 463 463" style="enable-background:new 0 0 463 463;" xml:space="preserve">
<g>
	<path d="M376.262,0H86.738C74.2,0,64,10.542,64,23.5v416c0,12.958,10.2,23.5,22.738,23.5h289.523C388.8,463,399,452.458,399,439.5
		v-416C399,10.542,388.8,0,376.262,0z M335,15h17v8.5c0,4.687-3.813,8.5-8.5,8.5s-8.5-3.813-8.5-8.5V15z M271,15h17v8.5
		c0,4.687-3.813,8.5-8.5,8.5s-8.5-3.813-8.5-8.5V15z M207,15h17v8.5c0,4.687-3.813,8.5-8.5,8.5s-8.5-3.813-8.5-8.5V15z M384,439.5
		c0,4.687-3.471,8.5-7.738,8.5H86.738c-4.267,0-7.738-3.813-7.738-8.5v-416c0-4.687,3.471-8.5,7.738-8.5H192v8.5
		c0,12.958,10.542,23.5,23.5,23.5S239,36.458,239,23.5V15h17v8.5c0,12.958,10.542,23.5,23.5,23.5S303,36.458,303,23.5V15h17v8.5
		c0,12.958,10.542,23.5,23.5,23.5S367,36.458,367,23.5V15h9.262c4.267,0,7.738,3.813,7.738,8.5V439.5z"/>
	<path d="M302.501,216h-57.66l9.926-80.293c1.196-8.047-0.695-13.122-5.619-15.086c-4.945-1.978-9.832,0.438-14.474,7.101
		l-78.979,110.744c-3.98,5.711-4.785,11.819-2.206,16.76s8.05,7.774,15.011,7.774h49.275l-10.884,96.334
		c-1.184,8.022,0.708,13.084,5.624,15.045c1.115,0.445,2.227,0.667,3.334,0.667c3.805,0,7.556-2.622,11.188-7.834l88.27-126.679
		c3.98-5.711,4.784-11.82,2.206-16.76C314.934,218.833,309.462,216,302.501,216z M303,231.957l-79.516,114.116l10.138-89.731
		c0.24-2.122-0.437-4.246-1.859-5.839S228.305,248,226.169,248h-57.67c-0.413,0-0.766-0.022-1.063-0.057
		c0.133-0.247,0.302-0.527,0.517-0.835l70.074-98.258l-9.114,73.729c-0.264,2.133,0.4,4.276,1.824,5.888
		c1.423,1.61,3.47,2.532,5.619,2.532h66.145c0.411,0,0.763,0.022,1.058,0.057C303.418,231.318,303.235,231.62,303,231.957z"/>
</g>
<g>
</g>
<g>
</g>
<g>
</g>
<g>
</g>
<g>
</g>
<g>
</g>
<g>
</g>
<g>
</g>
<g>
</g>
<g>
</g>
<g>
</g>
<g>
</g>
<g>
</g>
<g>
</g>
<g>
</g>
</svg>
