<?xml version="1.0" encoding="iso-8859-1"?>
<!-- Generator: Adobe Illustrator 19.0.0, SVG Export Plug-In . SVG Version: 6.00 Build 0)  -->
<svg version="1.1" id="Capa_1" xmlns="http://www.w3.org/2000/svg" xmlns:xlink="http://www.w3.org/1999/xlink" x="0px" y="0px"
	 viewBox="0 0 463 463" style="enable-background:new 0 0 463 463;" xml:space="preserve">
<g>
	<path d="M367.5,32h-272C86.953,32,80,38.953,80,47.5v272c0,8.547,6.953,15.5,15.5,15.5h272c8.547,0,15.5-6.953,15.5-15.5v-272
		C383,38.953,376.047,32,367.5,32z M303.507,208.176c-26.751,0-48.516-21.764-48.516-48.516v-1.532
		c38.329-5.372,63.528-19.828,80.721-30.031c10.015,6.181,16.31,18.159,16.31,31.563
		C352.022,186.412,330.259,208.176,303.507,208.176z M284.377,220.226c6.04,1.912,12.466,2.95,19.131,2.95
		c6.7,0,13.158-1.051,19.227-2.982c1.421,6.145,5.105,12.816,10.321,18.397c5.211,5.575,11.326,9.479,17.811,11.487
		c-4.826,21.784-24.523,38.067-47.358,38.067c-22.843,0-42.157-15.679-47.208-37.349
		C271.705,247.202,281.984,232.673,284.377,220.226z M360.99,236.641c-13.813,0-23.911-15.267-23.911-21.756
		c0-0.433-0.045-0.855-0.115-1.269c18.027-11.219,30.058-31.205,30.058-53.956c0-20.696-11.155-39.141-28.419-46.988
		c-2.231-1.014-4.819-0.874-6.927,0.376l-2.057,1.222c-18.075,10.742-42.829,25.455-82.931,29.773
		c-3.81,0.41-6.697,3.626-6.697,7.457v8.16c0,22.746,12.026,42.727,30.045,53.948c-0.071,0.416-0.117,0.841-0.117,1.277
		c0,6.313-7.329,21.756-20.914,21.756c-12.524,0-22.023-1.999-28.156-3.862c0.221-0.384,0.444-0.78,0.667-1.191
		c5.885-10.798,9.54-33.513,9.54-59.281v-4.246c0.001-0.123,0.009-0.243,0.009-0.366v-14.626c0-0.025-0.004-0.049-0.004-0.074
		c0.118-36.327,32.568-65.849,72.444-65.849c27.433,0,52.014,13.751,64.493,35.966v113.311
		C365.694,236.563,363.353,236.641,360.99,236.641z M111,119.212c0-11.83,9.164-24.067,24.5-24.067h8
		c4.098,0,7.423-3.288,7.493-7.37c11.599-3.693,29.136-0.041,45.015,3.266c8.377,1.744,16.37,3.409,23.289,3.934
		c2.195,4.378,4.842,12.991,4.457,24.268c-0.008,0.232-0.002,0.461,0.011,0.688c-2.83,5.805-4.939,11.972-6.23,18.404
		c-15.901-9.206-48.899-21.759-99.708-10.146c-2.492,0.57-4.405,2.322-5.29,4.528c-0.092,0.167-0.196,0.36-0.308,0.568
		C111.497,128.768,111,123.965,111,119.212z M209.17,222.71c-0.899-1.316-1.75-3.11-2.048-5.375
		c1.784-1.426,3.496-2.937,5.116-4.543C211.291,216.934,210.241,220.271,209.17,222.71z M118.989,163.691
		c0-8.878,3.58-17.479,5.601-21.625c32.176-6.717,55.645-2.526,69.832,2.291c11.003,3.737,18.226,8.395,21.637,10.914v12.789
		c-0.198,26.596-21.888,48.173-48.53,48.173c-26.765,0-48.54-21.774-48.54-48.539V163.691z M141.184,225.492
		c8.032,3.676,16.949,5.742,26.344,5.742c9.377,0,18.278-2.058,26.298-5.721c1.621,4.208,4.083,7.503,6.404,9.792
		c-1.669,1.805-3.371,3.692-5.146,5.661c-8.322,9.23-20.897,23.179-27.584,23.179c-6.686,0-19.262-13.948-27.584-23.179
		c-1.75-1.94-3.465-3.837-5.148-5.657C137.095,233.015,139.563,229.712,141.184,225.492z M95.5,47h272c0.276,0,0.5,0.225,0.5,0.5
		v50.875c-16.29-16.542-39.433-26.231-64.493-26.231c-26.6,0-50.46,11.067-66.512,28.49c-1.801-7.942-4.726-14.183-7.734-17.792
		c-1.425-1.71-3.536-2.698-5.761-2.698c-6.243,0-15.079-1.84-24.433-3.789c-21.837-4.548-48.734-10.135-64.766,3.818
		c-9.551,0.297-18.961,4.113-25.982,10.593C100.375,98.099,96,108.2,96,119.212c0,18.37,6.134,36.703,7.989,41.827v6.655
		c0,20.049,9.344,37.947,23.896,49.601c-0.517,4.027-2.797,6.564-3.944,7.603c-2.105-1.55-4.868-1.905-7.295-0.905l-18.705,7.699
		c-0.991,0.332-1.969,0.717-2.941,1.128V47.5C95,47.225,95.224,47,95.5,47z M95,319.5v-69.546c2.546-1.831,5.226-3.229,7.88-4.096
		c0.177-0.058,0.353-0.122,0.525-0.193l14.661-6.034c3.184,3.033,6.868,7.12,10.71,11.381
		c12.471,13.831,25.366,28.134,38.725,28.134s26.254-14.303,38.725-28.134c1.777-1.97,3.479-3.859,5.12-5.632
		c0.797,0.303,1.672,0.619,2.621,0.941C205.209,255.367,200,267.264,200,279.393V320H95.5C95.224,320,95,319.775,95,319.5z
		 M367.5,320H215v-40.607c0-12.769,8.604-23.434,17.576-28.82c2.659,0.356,5.507,0.639,8.53,0.825
		c5.546,29.837,31.511,51.747,62.403,51.747c16.001,0,31.288-5.972,43.043-16.813c10.088-9.305,16.81-21.483,19.333-34.793
		c0.706-0.026,1.414-0.051,2.115-0.089V319.5C368,319.775,367.776,320,367.5,320z"/>
	<path d="M391.5,0h-320C58.542,0,48,10.542,48,23.5v416c0,12.958,10.542,23.5,23.5,23.5h320c12.958,0,23.5-10.542,23.5-23.5v-416
		C415,10.542,404.458,0,391.5,0z M400,439.5c0,4.687-3.813,8.5-8.5,8.5h-320c-4.687,0-8.5-3.813-8.5-8.5v-416
		c0-4.687,3.813-8.5,8.5-8.5h320c4.687,0,8.5,3.813,8.5,8.5V439.5z"/>
	<path d="M367.5,352h-272c-8.547,0-15.5,6.953-15.5,15.5v48c0,8.547,6.953,15.5,15.5,15.5h272c8.547,0,15.5-6.953,15.5-15.5v-48
		C383,358.953,376.047,352,367.5,352z M368,415.5c0,0.275-0.224,0.5-0.5,0.5h-272c-0.276,0-0.5-0.225-0.5-0.5v-48
		c0-0.275,0.224-0.5,0.5-0.5h272c0.276,0,0.5,0.225,0.5,0.5V415.5z"/>
	<path d="M167.5,384h-48c-4.142,0-7.5,3.357-7.5,7.5s3.358,7.5,7.5,7.5h48c4.142,0,7.5-3.357,7.5-7.5S171.642,384,167.5,384z"/>
	<path d="M343.5,384h-144c-4.142,0-7.5,3.357-7.5,7.5s3.358,7.5,7.5,7.5h144c4.142,0,7.5-3.357,7.5-7.5S347.642,384,343.5,384z"/>
</g>
<g>
</g>
<g>
</g>
<g>
</g>
<g>
</g>
<g>
</g>
<g>
</g>
<g>
</g>
<g>
</g>
<g>
</g>
<g>
</g>
<g>
</g>
<g>
</g>
<g>
</g>
<g>
</g>
<g>
</g>
</svg>
