<?xml version="1.0" encoding="iso-8859-1"?>
<!-- Generator: Adobe Illustrator 19.0.0, SVG Export Plug-In . SVG Version: 6.00 Build 0)  -->
<svg version="1.1" id="Capa_1" xmlns="http://www.w3.org/2000/svg" xmlns:xlink="http://www.w3.org/1999/xlink" x="0px" y="0px"
	 viewBox="0 0 60 60" style="enable-background:new 0 0 60 60;" xml:space="preserve">
<g>
	<path d="M60,41.5h-9.29c-0.521-1.176-1.695-2-3.061-2H37.351C35.503,39.5,34,41.003,34,42.851v11.299
		c0,1.848,1.503,3.351,3.351,3.351h10.299c1.366,0,2.54-0.825,3.061-2H60V41.5z M47.649,55.5H37.351
		C36.605,55.5,36,54.894,36,54.149V42.851c0-0.745,0.605-1.351,1.351-1.351h10.299c0.745,0,1.351,0.606,1.351,1.351v11.299
		C49,54.894,48.395,55.5,47.649,55.5z M58,53.5h-7v-10h7V53.5z"/>
	<path d="M45,44.5h-5c-0.553,0-1,0.448-1,1v6c0,0.552,0.447,1,1,1h5c0.553,0,1-0.448,1-1v-6C46,44.948,45.553,44.5,45,44.5z
		 M44,50.5h-3v-4h3V50.5z"/>
	<path d="M28.896,42.5h-3.481l-2.707-2.707c-0.022-0.023-0.053-0.032-0.078-0.052L59.87,2.5H40.071L1.134,41.438
		C1.115,41.456,1.105,41.48,1.087,41.5H0v14h12v1c0,0.552,0.447,1,1,1h4h5c0.266,0,0.52-0.105,0.707-0.293l2.707-2.707h3.481
		c1.712,0,3.104-1.393,3.104-3.104v-5.791C32,43.893,30.607,42.5,28.896,42.5z M40.899,4.5h14.143l-35,35H17h-4h-1v1v1H3.9
		L40.899,4.5z M2,53.5v-10h10v10H2z M14,43.5v-2h2v14h-2V43.5z M21.586,55.5H18v-14h2.87h0.716L24,43.914v9.172L21.586,55.5z
		 M30,51.396c0,0.609-0.495,1.104-1.104,1.104H26v-8h2.896c0.609,0,1.104,0.496,1.104,1.104V51.396z"/>
	<rect x="27" y="46.5" width="2" height="4"/>
</g>
<g>
</g>
<g>
</g>
<g>
</g>
<g>
</g>
<g>
</g>
<g>
</g>
<g>
</g>
<g>
</g>
<g>
</g>
<g>
</g>
<g>
</g>
<g>
</g>
<g>
</g>
<g>
</g>
<g>
</g>
</svg>
