<?xml version="1.0" encoding="iso-8859-1"?>
<!-- Generator: Adobe Illustrator 18.1.1, SVG Export Plug-In . SVG Version: 6.00 Build 0)  -->
<svg version="1.1" id="Capa_1" xmlns="http://www.w3.org/2000/svg" xmlns:xlink="http://www.w3.org/1999/xlink" x="0px" y="0px"
	 viewBox="0 0 612.002 612.002" style="enable-background:new 0 0 612.002 612.002;" xml:space="preserve">
<g>
	<g>
		<path d="M595.031,253.838h-32.669v-67.007c0-9.372-7.597-16.969-16.965-16.969H16.962C7.593,169.862,0,177.459,0,186.831v238.344
			c0,9.369,7.593,16.965,16.962,16.965h528.438c9.369,0,16.965-7.597,16.965-16.965v-67.011h32.668
			c9.369,0,16.969-7.597,16.969-16.965v-70.397C612,261.431,604.4,253.838,595.031,253.838z M515.514,399.776H50.671V212.223
			h464.843V399.776z"/>
		<path d="M142.764,315.812l148.912,55.359c1.073,0.399,2.191,0.602,3.332,0.602c2.638,0,5.113-1.067,7.006-3.036
			c1.866-1.961,2.892-4.581,2.892-7.38v-44.946h109.797c5.074,0,9.308-3.996,9.852-9.392c0.431-4.789-2.254-9.242-6.528-10.831
			l-148.885-55.35c-3.579-1.343-7.718-0.353-10.3,2.362c-1.901,1.961-2.949,4.603-2.949,7.442v44.949H146.092
			c-5.091,0-9.321,4.007-9.858,9.486c-0.026,0.315-0.04,0.607-0.04,0.925C136.192,310.41,138.834,314.349,142.764,315.812z"/>
	</g>
</g>
<g>
</g>
<g>
</g>
<g>
</g>
<g>
</g>
<g>
</g>
<g>
</g>
<g>
</g>
<g>
</g>
<g>
</g>
<g>
</g>
<g>
</g>
<g>
</g>
<g>
</g>
<g>
</g>
<g>
</g>
</svg>
