<?xml version="1.0" encoding="iso-8859-1"?>
<!-- Generator: Adobe Illustrator 19.0.0, SVG Export Plug-In . SVG Version: 6.00 Build 0)  -->
<svg version="1.1" id="Layer_1" xmlns="http://www.w3.org/2000/svg" xmlns:xlink="http://www.w3.org/1999/xlink" x="0px" y="0px"
	 viewBox="0 0 489.901 489.901" style="enable-background:new 0 0 489.901 489.901;" xml:space="preserve">
<g>
	<g>
		<path d="M128.1,245.5c39.5,0,71.5-33.1,71.5-72.6s-32-72.6-71.5-72.6s-71.5,33.1-71.5,72.6S88.6,245.5,128.1,245.5z M128.1,140.9
			c17.1,0,31,14.9,31,32c0,18.1-13.9,32-31,32s-31-14.9-31-32C97.1,154.8,111,140.9,128.1,140.9z"/>
		<path d="M469.7,50.2H298.9c-10.7,0-20.3,8.5-20.3,20.3v65.1h-22.4v-94C256.2,18.1,237,0,214.6,0h-173C18.1,0,0,19.2,0,41.6v406.7
			c0,23.5,19.2,41.6,41.6,41.6h172.9c23.5,0,41.6-18.1,41.6-41.6V176.1h22.4v55.5c0,10.7,8.5,20.3,20.3,20.3h170.8
			c11.7,0,20.3-8.5,20.3-20.3V70.5C490,59.8,481.5,50.2,469.7,50.2z M214.6,448.4h-173V41.6h172.9v406.8H214.6z M449.4,211.4H319.2
			V90.7h130.2L449.4,211.4L449.4,211.4z"/>
		<path d="M180.4,374.7H77.9c-10.7,0-20.3,8.5-20.3,20.3c0,10.7,8.5,20.3,20.3,20.3h101.4c11.7,0,20.3-8.5,21.4-20.3
			C200.7,384.3,192.2,374.7,180.4,374.7z"/>
	</g>
</g>
<g>
</g>
<g>
</g>
<g>
</g>
<g>
</g>
<g>
</g>
<g>
</g>
<g>
</g>
<g>
</g>
<g>
</g>
<g>
</g>
<g>
</g>
<g>
</g>
<g>
</g>
<g>
</g>
<g>
</g>
</svg>
