<?xml version='1.0' encoding='iso-8859-1'?>
<!DOCTYPE svg PUBLIC '-//W3C//DTD SVG 1.1//EN' 'http://www.w3.org/Graphics/SVG/1.1/DTD/svg11.dtd'>
<svg version="1.1" xmlns="http://www.w3.org/2000/svg" viewBox="0 0 469.211 469.211" xmlns:xlink="http://www.w3.org/1999/xlink" enable-background="new 0 0 469.211 469.211">
  <g>
    <path d="m433.516,89.944h-397.821c-19.682,0-35.695,16.013-35.695,35.696v217.932c0,19.682 16.013,35.695 35.695,35.695h397.821c19.683,0 35.695-16.013 35.695-35.695v-217.932c0-19.683-16.012-35.696-35.695-35.696zm20.695,253.628c0,11.411-9.284,20.695-20.695,20.695h-397.821c-11.412,0-20.695-9.284-20.695-20.695v-217.932c0-11.411 9.284-20.695 20.695-20.695h397.821c11.411,0 20.695,9.284 20.695,20.695v217.932z"/>
    <path d="m200.104,123.969h-126.12c-20.958,0-38.008,17.05-38.008,38.008v145.258c0,20.958 17.05,38.008 38.008,38.008h126.12c20.958,0 38.008-17.05 38.008-38.008v-145.258c0-20.958-17.05-38.008-38.008-38.008zm23.008,183.266c0,12.687-10.321,23.008-23.008,23.008h-126.12c-12.687,0-23.008-10.321-23.008-23.008v-145.258c0-12.687 10.321-23.008 23.008-23.008h126.12c12.687,0 23.008,10.321 23.008,23.008v145.258z"/>
    <path d="m198.585,149.487h-123.082c-7.724,0-14.008,6.284-14.008,14.008v142.221c0,7.724 6.284,14.008 14.008,14.008h123.083c7.724,0 14.008-6.284 14.008-14.008v-142.221c-0.001-7.724-6.284-14.008-14.009-14.008zm-.992,155.237h-121.098v-140.237h121.098v140.237z"/>
    <path d="m299.207,145.962h-36.977c-4.143,0-7.5,3.358-7.5,7.5v36.977c0,4.142 3.357,7.5 7.5,7.5h36.977c4.143,0 7.5-3.358 7.5-7.5v-36.977c0-4.142-3.358-7.5-7.5-7.5zm-7.5,36.977h-21.977v-21.977h21.977v21.977z"/>
    <path d="m361.862,145.962h-36.977c-4.143,0-7.5,3.358-7.5,7.5v36.977c0,4.142 3.357,7.5 7.5,7.5h36.977c4.143,0 7.5-3.358 7.5-7.5v-36.977c0-4.142-3.358-7.5-7.5-7.5zm-7.5,36.977h-21.977v-21.977h21.977v21.977z"/>
    <path d="m424.518,145.962h-36.978c-4.143,0-7.5,3.358-7.5,7.5v36.977c0,4.142 3.357,7.5 7.5,7.5h36.978c4.143,0 7.5-3.358 7.5-7.5v-36.977c0-4.142-3.357-7.5-7.5-7.5zm-7.5,36.977h-21.978v-21.977h21.978v21.977z"/>
    <path d="m299.207,208.617h-36.977c-4.143,0-7.5,3.358-7.5,7.5v36.977c0,4.142 3.357,7.5 7.5,7.5h36.977c4.143,0 7.5-3.358 7.5-7.5v-36.977c0-4.142-3.358-7.5-7.5-7.5zm-7.5,36.977h-21.977v-21.977h21.977v21.977z"/>
    <path d="m361.862,208.617h-36.977c-4.143,0-7.5,3.358-7.5,7.5v36.977c0,4.142 3.357,7.5 7.5,7.5h36.977c4.143,0 7.5-3.358 7.5-7.5v-36.977c0-4.142-3.358-7.5-7.5-7.5zm-7.5,36.977h-21.977v-21.977h21.977v21.977z"/>
    <path d="m424.518,208.617h-36.978c-4.143,0-7.5,3.358-7.5,7.5v36.977c0,4.142 3.357,7.5 7.5,7.5h36.978c4.143,0 7.5-3.358 7.5-7.5v-36.977c0-4.142-3.357-7.5-7.5-7.5zm-7.5,36.977h-21.978v-21.977h21.978v21.977z"/>
    <path d="m299.207,271.273h-36.977c-4.143,0-7.5,3.358-7.5,7.5v36.977c0,4.142 3.357,7.5 7.5,7.5h36.977c4.143,0 7.5-3.358 7.5-7.5v-36.977c0-4.142-3.358-7.5-7.5-7.5zm-7.5,36.977h-21.977v-21.977h21.977v21.977z"/>
    <path d="m361.862,271.273h-36.977c-4.143,0-7.5,3.358-7.5,7.5v36.977c0,4.142 3.357,7.5 7.5,7.5h36.977c4.143,0 7.5-3.358 7.5-7.5v-36.977c0-4.142-3.358-7.5-7.5-7.5zm-7.5,36.977h-21.977v-21.977h21.977v21.977z"/>
    <path d="m424.518,271.273h-36.978c-4.143,0-7.5,3.358-7.5,7.5v36.977c0,4.142 3.357,7.5 7.5,7.5h36.978c4.143,0 7.5-3.358 7.5-7.5v-36.977c0-4.142-3.357-7.5-7.5-7.5zm-7.5,36.977h-21.978v-21.977h21.978v21.977z"/>
    <path d="m98.66,236.552h2.881v38.88c0,4.142 3.358,7.5 7.5,7.5h56.007c4.142,0 7.5-3.358 7.5-7.5v-38.88h2.881c3.091,0 5.866-1.896 6.988-4.777 1.122-2.88 0.362-6.154-1.914-8.246l-38.385-35.271c-2.869-2.637-7.28-2.637-10.149,0l-38.384,35.271c-2.276,2.092-3.036,5.365-1.914,8.246 1.123,2.88 3.897,4.777 6.989,4.777zm17.881,31.379v-31.38h41.007v31.38h-41.007zm20.503-63.965l19.138,17.586h-38.276l19.138-17.586z"/>
  </g>
</svg>
