<?xml version="1.0" encoding="utf-8"?>
<!-- Generator: Adobe Illustrator 19.2.0, SVG Export Plug-In . SVG Version: 6.00 Build 0)  -->
<svg version="1.1" id="Capa_1" xmlns="http://www.w3.org/2000/svg" xmlns:xlink="http://www.w3.org/1999/xlink" x="0px" y="0px"
	 viewBox="0 0 484 484" style="enable-background:new 0 0 484 484;" xml:space="preserve">
<style type="text/css">
	.st0{fill:#FFFFFF;}
</style>
<g>
	<path class="st0" d="M200.8,400.7v-45.3h59.7l-11-14.3h-48.7v-47h107.4v26.3l13.5,5.3V177.3c0-1.9,0.4-3.7,0.8-5.4v-9.8h6.4
		c3.4-2.9,7.8-4.7,12.6-4.7H400c4.8,0,9.2,1.8,12.6,4.7h20v53.7h-12.8v14.3h12.8v49.6h-12.8v14.3h12.8v26.5l14.3-5.7V32.9
		c0-9.2-7.5-16.7-16.7-16.7H16.7C7.5,16.2,0,23.7,0,32.9v365.9c0,5.6,2.8,10.6,7.2,13.7v2.6h6c1.1,0.3,2.3,0.4,3.6,0.4h290
		l-11.3-14.7L200.8,400.7L200.8,400.7z M322.5,30.5h107.8c1.3,0,2.4,1.1,2.4,2.4V81H322.5L322.5,30.5L322.5,30.5z M322.5,95.3h110.1
		v52.5H322.5V95.3z M200.8,30.5h107.4V81H200.8V30.5z M200.8,95.3h107.4v52.5H200.8V95.3z M200.8,162.1h107.4v53.7H200.8V162.1z
		 M200.8,230.1h107.4v49.6H200.8V230.1z M66,400.7H15.5c-0.7-0.4-1.1-1.1-1.1-2v-43.3H66V400.7z M66,341.1H14.3v-47H66V341.1z
		 M66,279.7H14.3v-49.6H66V279.7z M66,215.8H14.3v-53.7H66V215.8z M66,147.8H14.3V95.3H66V147.8z M186.5,400.7H80.3v-45.3h106.2
		V400.7z M186.5,341.1H80.3v-47h106.2V341.1z M186.5,279.7H80.3v-49.6h106.2V279.7z M186.5,215.8H80.3v-53.7h106.2V215.8z
		 M186.5,147.8H80.3V95.3h106.2V147.8z M186.5,81H80.3V30.5h106.2V81z M482.8,322.2L372.6,465.6c-1.1,1.4-2.8,2.3-4.6,2.3
		c-1.8,0-3.5-0.8-4.6-2.3L253.1,322.2c-0.8-1.1-1.2-2.3-1.2-3.6c0-1.2,0.4-2.5,1.2-3.5c1.6-2.1,4.4-2.9,6.8-1.9l73,28.8V173.1
		c0-3.2,2.6-5.8,5.9-5.8h58.5c3.2,0,5.9,2.6,5.9,5.8V342l73-28.8c2.5-1,5.2-0.2,6.8,1.9C484.4,317.2,484.4,320.1,482.8,322.2z"/>
</g>
</svg>
