<?xml version='1.0' encoding='iso-8859-1'?>
<!DOCTYPE svg PUBLIC '-//W3C//DTD SVG 1.1//EN' 'http://www.w3.org/Graphics/SVG/1.1/DTD/svg11.dtd'>
<svg version="1.1" xmlns="http://www.w3.org/2000/svg" viewBox="0 0 423 423" xmlns:xlink="http://www.w3.org/1999/xlink" enable-background="new 0 0 423 423">
  <g>
    <path d="m205.725,187.7c-11.028,0-20,8.972-20,20s8.972,20 20,20c11.028,0 20-8.972 20-20s-8.972-20-20-20zm0,25c-2.757,0-5-2.243-5-5s2.243-5 5-5 5,2.243 5,5-2.243,5-5,5z"/>
    <path d="m256.875,187.7c-11.028,0-20,8.972-20,20s8.972,20 20,20 20-8.972 20-20-8.971-20-20-20zm0,25c-2.757,0-5-2.243-5-5s2.243-5 5-5 5,2.243 5,5-2.243,5-5,5z"/>
    <path d="m359.175,187.7c-11.028,0-20,8.972-20,20s8.972,20 20,20 20-8.972 20-20-8.972-20-20-20zm0,25c-2.757,0-5-2.243-5-5s2.243-5 5-5 5,2.243 5,5-2.243,5-5,5z"/>
    <path d="m308.025,187.7c-11.028,0-20,8.972-20,20s8.972,20 20,20 20-8.972 20-20-8.972-20-20-20zm0,25c-2.757,0-5-2.243-5-5s2.243-5 5-5 5,2.243 5,5-2.244,5-5,5z"/>
    <path d="m205.725,236.45c-11.028,0-20,8.972-20,20s8.972,20 20,20c11.028,0 20-8.972 20-20s-8.972-20-20-20zm0,25c-2.757,0-5-2.243-5-5s2.243-5 5-5 5,2.243 5,5-2.243,5-5,5z"/>
    <path d="m256.875,236.45c-11.028,0-20,8.972-20,20s8.972,20 20,20 20-8.972 20-20-8.971-20-20-20zm0,25c-2.757,0-5-2.243-5-5s2.243-5 5-5 5,2.243 5,5-2.243,5-5,5z"/>
    <path d="m359.175,236.45c-11.028,0-20,8.972-20,20s8.972,20 20,20 20-8.972 20-20-8.972-20-20-20zm0,25c-2.757,0-5-2.243-5-5s2.243-5 5-5 5,2.243 5,5-2.243,5-5,5z"/>
    <path d="m308.025,236.45c-11.028,0-20,8.972-20,20s8.972,20 20,20 20-8.972 20-20-8.972-20-20-20zm0,25c-2.757,0-5-2.243-5-5s2.243-5 5-5 5,2.243 5,5-2.244,5-5,5z"/>
    <path d="m205.725,285.2c-11.028,0-20,8.972-20,20s8.972,20 20,20c11.028,0 20-8.972 20-20s-8.972-20-20-20zm0,25c-2.757,0-5-2.243-5-5s2.243-5 5-5 5,2.243 5,5-2.243,5-5,5z"/>
    <path d="m256.875,285.2c-11.028,0-20,8.972-20,20s8.972,20 20,20 20-8.972 20-20-8.971-20-20-20zm0,25c-2.757,0-5-2.243-5-5s2.243-5 5-5 5,2.243 5,5-2.243,5-5,5z"/>
    <path d="m359.175,285.2c-11.028,0-20,8.972-20,20s8.972,20 20,20 20-8.972 20-20-8.972-20-20-20zm0,25c-2.757,0-5-2.243-5-5s2.243-5 5-5 5,2.243 5,5-2.243,5-5,5z"/>
    <path d="m308.025,285.2c-11.028,0-20,8.972-20,20s8.972,20 20,20 20-8.972 20-20-8.972-20-20-20zm0,25c-2.757,0-5-2.243-5-5s2.243-5 5-5 5,2.243 5,5-2.244,5-5,5z"/>
    <path d="M386.443,0H36.557C16.854,0,0.825,16.029,0.825,35.732v287.536c0,17.11,12.091,31.442,28.175,34.92v27.862   C29,406.424,45.575,423,65.95,423s36.95-16.576,36.95-36.95V359h283.542c19.703,0,35.732-16.029,35.732-35.732V35.732   C422.175,16.029,406.146,0,386.443,0z M87.9,386.05c0,12.103-9.847,21.95-21.95,21.95S44,398.153,44,386.05V359h43.9V386.05z    M407.175,323.268c0,11.432-9.301,20.732-20.732,20.732H102.9v-28h12.792c21.992,0,39.883-17.892,39.883-39.883V67.833   c0-21.991-17.891-39.883-39.883-39.883H75.108c-21.992,0-39.883,17.892-39.883,39.883v208.284   c0,21.991,17.891,39.883,39.883,39.883H87.9v28H36.557c-11.432,0-20.732-9.3-20.732-20.732V35.732C15.825,24.3,25.125,15,36.557,15   h349.886c11.432,0,20.732,9.3,20.732,20.732V323.268z M75.108,301c-13.72,0-24.883-11.163-24.883-24.883V67.833   c0-13.72,11.163-24.883,24.883-24.883h40.584c13.72,0,24.883,11.163,24.883,24.883v208.284c0,13.72-11.163,24.883-24.883,24.883   H75.108z"/>
    <path d="m346.843,27.95h-128.786c-17.828,0-32.332,14.504-32.332,32.332v79.336c0,17.828 14.504,32.332 32.332,32.332h128.786c17.828,0 32.332-14.504 32.332-32.332v-79.336c5.68434e-14-17.828-14.504-32.332-32.332-32.332zm0,129h-128.786c-9.422,0-17.097-7.561-17.312-16.933h69.004c2.975,7.318 10.152,12.496 18.526,12.496 11.028,0 20-8.972 20-20s-8.972-20-20-20c-8.377,0-15.556,5.182-18.529,12.504h-69.021v-15.63h22.55c1.989,0 3.896-0.79 5.304-2.197l21.254-21.254c2.303,0.927 4.811,1.451 7.442,1.451 11.028,0 20-8.972 20-20s-8.972-20-20-20-20,8.972-20,20c0,2.901 0.635,5.652 1.75,8.143l-18.857,18.857h-19.443v-34.105c0-9.557 7.775-17.332 17.332-17.332h128.786c9.557,0 17.332,7.775 17.332,17.332v7.718h-29.643c-2.973-7.322-10.152-12.503-18.529-12.503-11.028,0-20,8.972-20,20s8.972,20 20,20c8.374,0 15.551-5.178 18.526-12.497h29.646v56.618c5.68434e-14,9.557-7.775,17.332-17.332,17.332zm-63.568-24.437c0-2.757 2.243-5 5-5s5,2.243 5,5-2.243,5-5,5-5-2.243-5-5zm-31-65.126c0-2.757 2.243-5 5-5s5,2.243 5,5-2.243,5-5,5-5-2.243-5-5zm68.728,8.11c0,2.757-2.243,5-5,5s-5-2.243-5-5 2.243-5 5-5 5,2.243 5,5z"/>
  </g>
</svg>
